<?xml version="1.0" encoding="utf-8"?>
<!-- Generator: Adobe Illustrator 21.0.2, SVG Export Plug-In . SVG Version: 6.00 Build 0)  -->
<svg version="1.1" id="Layer_1" xmlns="http://www.w3.org/2000/svg" xmlns:xlink="http://www.w3.org/1999/xlink" x="0px" y="0px"
	 viewBox="0 0 260 204.1" style="enable-background:new 0 0 260 204.1;" xml:space="preserve">
<style type="text/css">
	.st0{fill:#FFFFFF;}
</style>
<g>
	<path class="st0" d="M85.7,69.2c0.3,0,0.5,0,0.8,0c2.4,0,4.9,0,7.3,0c0.5,0,0.6,0.1,0.8,0.6c0.4,1.3,0.7,2.5,1.2,3.8
		c2.3,5.3,6,9.4,10.8,12.6c7.5,5.2,16,7.5,25.1,7.8c4.4,0.2,8.8-0.2,13.1-1.2c6.8-1.5,13-4.3,18.3-8.8c4.5-3.8,7.7-8.5,9.1-14.3
		c0.1-0.4,0.3-0.4,0.7-0.4c2.5,0,5,0,7.5,0c0.2,0,0.4,0,0.7,0c0-2.6,0-5.1,0-7.6c-3.1,0-6.2,0-9.2,0c-0.4,0-0.4,0.2-0.4,0.5
		c0,0.9,0,1.8,0,2.8c0,0.3,0,0.5-0.4,0.5c-1,0-2,0-3,0c-0.1,0-0.3-0.2-0.4-0.4c-0.1-0.2,0-0.5,0-0.7c0-0.9,0-1.7,0-2.6
		c-1.4,0-2.7,0-4.1,0c0,1.1,0,2.2,0,3.2c0,0.2-0.2,0.5-0.2,0.5c-1.2,0-2.4,0-3.6,0c0-1.3,0-2.5,0-3.7c-1.4,0-2.8,0-4.2,0
		c0,1.2,0,2.5,0,3.7c-1.1,0-2.1,0-3.2,0c-0.6,0-0.7-0.2-0.7-0.7c0-1,0-2,0-3c-1.4,0-2.7,0-4.1,0c0,1.1,0,2.1,0,3.2
		c0,0.4-0.1,0.5-0.5,0.5c-0.9,0-1.8,0-2.8,0c-0.4,0-0.6-0.1-0.6-0.6c0-0.9,0-1.8,0-2.7c0-0.2-0.2-0.5-0.3-0.5c-1.3,0-2.6,0-3.9,0
		c0,1,0,1.9,0,2.8c0,1,0.1,0.9-1,0.9c-0.7,0-1.4,0-2.1,0c-0.7,0-0.7,0-0.7-0.8c0-1,0-2,0-3c-1.3,0-2.4,0-3.6,0
		c-0.4,0-0.6,0.1-0.6,0.5c0,0.9,0,1.8,0,2.7c0,0.4-0.1,0.5-0.5,0.5c-0.9,0-1.7,0-2.6,0c-0.8,0-0.8,0-0.8-0.8c0-1,0-2,0-3
		c-1.4,0-2.7,0-4.1,0c0,0.8,0,1.6,0,2.5c0,1.3,0,1.3-1.3,1.3c-0.8,0-1.7,0-2.6,0c0-1.3,0-2.5,0-3.7c-1.4,0-2.8,0-4.2,0
		c0,1.1,0,2.1,0,3.1c0,0.4-0.1,0.6-0.6,0.6c-0.9,0-1.7,0-2.6,0c-0.6,0-0.7-0.1-0.7-0.7c0-1,0-2,0-3.1c-1.3,0-2.4,0-3.6,0
		c-0.4,0-0.5,0.2-0.5,0.5c0,0.9,0,1.8,0,2.6c0,0.4-0.1,0.6-0.6,0.6c-0.9,0-1.8,0-2.7,0c-0.4,0-0.6-0.1-0.6-0.6c0-0.9,0-1.8,0-2.7
		c0-0.4-0.1-0.5-0.5-0.5c-1.1,0-2.1,0-3.2,0c-0.1,0-0.3,0-0.5,0.1c0,1.1,0,2.2,0,3.2c0,0.2-0.2,0.5-0.2,0.5c-1.2,0-2.4,0-3.6,0
		c0-1.3,0-2.5,0-3.7c-3.3,0-6.5,0-9.7,0C85.7,64.1,85.7,66.6,85.7,69.2z M110.9,30.6c0.1-0.1,0.1-0.1,0.2-0.2
		c0.1,0.2,0.2,0.4,0.3,0.5c3.3,4.1,3.9,8.7,2.3,13.6c-0.6,1.8-1.7,3.5-2.6,5.2c-1.3,2.4-1.7,5-1,7.7c0.1,0.6,0.4,0.7,1,0.7
		c12.4,0,24.7,0,37.1,0c3.2,0,6.5,0,9.7,0c0.4,0,0.7-0.1,0.8-0.5c0.3-1.1,0.7-2.1,0.9-3.2c0.4-2.3-0.5-4.1-2.5-5.1
		c-1.3-0.6-2.3-1.6-2.9-2.9c-1.6-3.2-2-6.5-1.4-10c0.3-1.5,0.8-2.9,1.9-4.2c-4.8,0.9-8,3.4-8.9,8.3c-0.1-0.2-0.1-0.3-0.1-0.5
		c-0.1-1.1-0.2-2.3-0.5-3.4c-0.5-2.3-1.4-4.3-3.3-5.8c-1.3-1-2.2-2.2-2.7-3.7c-1.6-4.4-1.3-8.8,0.3-13.2c0.5-1.4,1.4-2.7,2-3.9
		c0,0-0.1,0-0.2,0.1c-5.1,2.1-9.7,5.1-13.4,9.3c-3.1,3.6-5,7.8-5.3,12.6c-0.2,3.3,0.4,6.6,1.5,9.7c0.1,0.3,0.2,0.5,0.3,0.9
		c-0.3-0.1-0.5-0.2-0.7-0.3c-2-1-3.2-2.7-3.9-4.8c-0.5-1.5-1.3-2.7-2.4-3.8c-2.4-2.5-5.4-4-8.6-5.3c-0.1,0-0.1,0-0.3,0
		c0.1,0.2,0.2,0.3,0.3,0.5c1.1,1.8,2.1,3.7,2.7,5.8c0.8,2.5,1.1,5,0.4,7.5c-0.4,1.5-1.3,2.7-2.1,4c-2.4,3.4-3.5,7-2.6,11.2
		c0.2,0.9,0.3,1,1.2,0.7c0-0.2-0.1-0.4-0.1-0.6c-0.8-3.1-0.6-6.1,1.2-8.8c0.8-1.2,1.6-2.4,2.4-3.6c0.9-1.4,1.4-2.9,1.5-4.6
		c0.1-2.8-0.6-5.5-1.7-8.1C111.5,31.7,111.2,31.2,110.9,30.6z M36,128.5c0.3-0.1,0.5-0.2,0.7-0.2c1.9-0.6,3.7-1.5,5.2-2.9
		c2-1.9,2.9-4.3,3.1-7.1c0.2-3.4-0.6-6.5-3-9c-2.6-2.6-5.8-3.8-9.3-4c-3-0.2-6,0-9.1,0c-2.8,0-5.5,0-8.3-0.1c-1.2,0-2.5-0.1-3.7-0.1
		c-1,0-1.7,0.8-1.8,1.9c0,1.2,0.5,1.9,1.6,2c0.6,0.1,1.1,0.2,1.6,0.2c1.8,0.2,3,1.2,3.3,3.1c0.2,1.3,0.4,2.7,0.4,4
		c0,8.1,0,16.1,0,24.2c0,0.7,0,1.5-0.1,2.2c-0.2,2-0.8,2.7-2.8,3.1c-0.7,0.1-1.4,0.2-2,0.3c-1.1,0.1-1.7,0.9-1.6,2.3
		c0.1,1.1,0.8,1.8,1.8,1.7c1.3,0,2.6,0,3.8-0.2c3.6-0.4,7.1-0.3,10.7,0c1.6,0.1,3.3,0.2,4.9,0.2c1.1,0,1.8-0.8,1.8-2s-0.7-2-1.7-2
		c-0.7-0.1-1.4-0.1-2-0.3c-1.3-0.2-2.6-0.6-3.2-2c-0.3-0.7-0.6-1.5-0.6-2.3c-0.1-1.5-0.1-3-0.1-4.5c0-1.8,0-3.6,0-5.4
		c0-0.8,0.3-1.2,1-1.3c2.5-0.2,4.6,0.4,5.9,2.6c0.9,1.5,1.5,3.1,1.9,4.8c0.8,3,1.6,6,2.4,9c0.4,1.5,1.5,2.6,2.9,3.3
		c1.7,0.9,3.5,1,5.3,0.8c3.6-0.4,6.2-3,6.7-6.6c0.1-1.1-0.5-1.9-1.6-2.2c-1.1-0.2-1.9,0.3-2.3,1.3c-0.1,0.4-0.3,0.9-0.6,1.3
		c-0.6,0.8-1.4,0.8-2,0c-0.2-0.3-0.4-0.7-0.5-1.1c-0.4-1.5-0.7-3.1-1-4.6c-0.9-4-2.8-7.3-6.3-9.6C37,129.1,36.6,128.8,36,128.5z
		 M73.2,150.5c1.5-0.2,3.1-0.2,4.6-0.5c7.1-1.3,12.3-5.1,15.3-11.7c3-6.6,3.2-13.4,0.9-20.2c-2-6-6.1-10.2-12.1-12.5
		c-4.1-1.5-8.4-1.8-12.7-1.1c-7.5,1.3-12.9,5.4-16,12.4c-1.6,3.6-2.2,7.5-2,11.5c0.1,2.6,0.4,5.1,1.1,7.6c1.5,5.5,4.8,9.7,10,12.2
		C65.8,149.8,69.4,150.4,73.2,150.5z M231.2,129.2c1.7,0.2,3.4,0.3,5.1,0.5c1.3,0.2,2,0.9,2.2,2.2c0.1,0.8,0.3,1.7,0.4,2.5
		c0.1,0.8,0.7,1.3,1.4,1.4c0.3,0,0.6,0,0.9,0c1.1,0,1.7-0.6,1.7-1.7c0-1,0-2-0.1-3c-0.3-2.5-0.3-4.9-0.1-7.4
		c0.1-1.2,0.2-2.4,0.2-3.6c0-0.9-0.3-1.5-1.1-1.7c-0.6-0.1-1.3-0.1-1.9,0.1c-0.6,0.1-0.9,0.6-1,1.2c-0.1,0.7-0.2,1.4-0.3,2
		c-0.3,1.6-1,2.3-2.6,2.5c-1.4,0.2-2.7,0.3-4.1,0.4c-0.8,0-0.8,0-0.8-0.7c0-3.8,0-7.7,0-11.5c0-0.5,0.1-1,0.1-1.5
		c0.1-0.5,0.3-0.9,0.9-0.9c0.2,0,0.5-0.1,0.7-0.1c3,0,6,0,9,0.1c2.2,0.1,2.9,0.7,3.5,2.8c0.3,1.1,0.5,2.2,0.8,3.3
		c0.1,0.7,0.6,1.2,1.3,1.3c0.6,0.1,1.2,0,1.7-0.1c0.6-0.2,0.9-0.7,0.9-1.3c0-0.9-0.1-1.8-0.1-2.6c0-1.9-0.1-3.8,0-5.7
		c0.1-1.5-0.5-2.2-2-2.2c-10.2-0.1-20.4-0.1-30.7-0.2c-0.8,0-1.4,0.4-1.7,1.3c-0.3,1,0,2,0.7,2.4c0.2,0.1,0.4,0.2,0.6,0.2
		c0.5,0.1,1.1,0.1,1.6,0.2c2.3,0.4,3.2,1.2,3.5,3.5c0.2,1.3,0.3,2.5,0.3,3.8c0,8.1,0,16.3,0,24.4c0,0.5,0,1-0.1,1.5
		c-0.2,1.6-1,2.6-2.6,3.1c-0.7,0.2-1.4,0.3-2.1,0.4c-1.3,0.2-1.9,0.9-1.8,2.2c0.1,1.2,0.8,1.8,2,1.8c3.3-0.1,6.5-0.3,9.8-0.3
		c7.1-0.1,14.2,0,21.3,0c0.3,0,0.6,0,0.9,0c1.2-0.1,2-0.8,2-1.9c-0.1-3.2,0.4-6.3,0.7-9.4c0.1-0.8-0.2-1.3-0.9-1.6s-1.5-0.3-2.2,0
		c-0.6,0.2-0.9,0.6-1.1,1.3c-0.1,0.6-0.2,1.1-0.3,1.7c-0.4,2.4-1.6,4-3.9,4.8c-0.9,0.3-1.8,0.5-2.7,0.6c-2.5,0.2-5.1,0.2-7.6-0.3
		c-1.4-0.3-2.1-1-2.3-2.4c-0.2-1.2-0.3-2.4-0.3-3.5c0-3,0-6,0-9C231.2,129.8,231.2,129.5,231.2,129.2z M150.5,134.9L150.5,134.9
		c2.1,0.1,4.2,0.1,6.3,0.1c0.4,0,0.7,0.2,0.8,0.6c0.8,2,1.6,4.1,2.3,6.1c0.3,0.9,0.4,1.8,0.5,2.7c0.1,0.6-0.2,1-0.8,1.2
		c-0.8,0.2-1.6,0.4-2.4,0.5c-1.1,0.2-1.8,0.9-1.7,2.1c0.1,1.2,0.8,1.9,1.9,1.9c1.7-0.1,3.4-0.2,5.2-0.3c2.6-0.2,5.3-0.3,7.9,0
		c1.4,0.2,2.9,0.2,4.3,0.3c0.5,0,1-0.1,1.3-0.6c0.9-1.2,0.3-3.1-1.2-3.4c-0.4-0.1-0.7-0.2-1.1-0.3c-1-0.2-1.9-0.7-2.4-1.5
		c-0.6-1-1.3-2-1.7-3.1c-4.8-12-9.5-23.9-14.3-35.9c-0.4-1-1.2-1.5-2.4-1.5c-1.1,0-1.6,0.3-2,1.5c-3.7,9.3-7.4,18.6-11.1,27.9
		c-1.2,3.1-2.4,6.1-3.7,9.1c-0.8,1.9-2,3.2-4.1,3.6c-0.4,0.1-0.8,0.1-1.2,0.2c-1,0.1-1.6,0.9-1.6,2c0,1.2,0.7,2,1.8,2
		c1,0,2.1-0.1,3.1-0.2c1.7-0.2,3.4-0.3,5.1-0.2c1.8,0.2,3.6,0.3,5.4,0.4c1.1,0.1,1.8-0.7,1.8-1.9s-0.6-2-1.7-2.1
		c-0.7-0.1-1.5-0.2-2.2-0.3c-1.8-0.5-2.2-1.3-1.5-3c0.9-2.3,1.8-4.7,2.7-7c0.3-0.9,0.5-0.9,1.4-0.9
		C146.9,134.9,148.7,134.9,150.5,134.9z M118.1,127.6c-0.1-0.3-0.2-0.4-0.3-0.5c-2.2-4.2-4.5-8.5-6.7-12.7c-0.5-1-0.9-2-1.3-3
		c-0.3-0.9-0.1-1.4,0.8-1.6c0.8-0.2,1.6-0.4,2.4-0.5c1.2-0.1,1.9-1,1.8-2.2c-0.1-1.1-0.8-1.8-2-1.8c-0.3,0-0.5,0-0.8,0
		c-3.4,0.1-6.8,0.3-10.3,0.3c-2.3,0-4.5-0.2-6.8-0.3c-1,0-1.8,0.7-1.8,1.7c-0.1,1.3,0.5,2.1,1.6,2.3c0.8,0.1,1.5,0.2,2.3,0.4
		c0.8,0.1,1.5,0.5,1.9,1.1c0.6,0.8,1.2,1.6,1.7,2.4c3.6,6.4,7.2,12.9,10.7,19.3c0.1,0.2,0.2,0.4,0.2,0.5c0,3.3,0,6.6-0.1,9.9
		c-0.1,1.9-0.7,2.5-2.5,2.9c-0.7,0.2-1.4,0.2-2.2,0.3c-0.6,0.1-1.3,0.2-1.7,0.8c-0.5,0.8-0.5,1.6-0.1,2.5c0.4,0.8,1.1,0.9,1.8,0.9
		c1.8-0.1,3.6-0.3,5.4-0.4c2.5-0.2,5-0.2,7.5,0c1.9,0.2,3.7,0.3,5.6,0.4c1,0,1.6-0.4,1.9-1.3c0.4-1.4-0.4-2.6-1.9-2.8
		c-1.1-0.1-2.1-0.3-3.1-0.6c-0.8-0.2-1.4-0.8-1.5-1.6c-0.1-0.9-0.3-1.7-0.3-2.6c0-2.9,0-5.8,0-8.7c0-0.4,0.1-0.8,0.3-1.1
		c2.7-4.5,5.3-9,8-13.5c1.3-2.1,2.6-4.3,4-6.3c1-1.4,2.4-2.3,4.3-2.5c1-0.1,1.6-1,1.5-2.3c-0.1-1-0.7-1.7-1.7-1.7s-2,0.1-3,0.2
		c-2,0.2-4.1,0.3-6.1,0.1c-1.5-0.1-3.1-0.2-4.6-0.3c-1,0-1.7,0.7-1.8,1.8c-0.1,1.2,0.6,2,1.6,2.2c0.6,0.1,1.2,0.1,1.8,0.2
		c1.2,0.2,1.7,0.8,1.4,2.1c-0.2,0.9-0.4,1.7-0.8,2.5c-1.4,3-2.9,5.9-4.4,8.8C120.1,124.4,119.1,125.9,118.1,127.6z M198.2,149.8
		L198.2,149.8c4.2,0,8.4,0,12.6,0c1.7,0,2.4-0.8,2.5-2.5c0.1-2,0.2-4.1,0.3-6.1c0.1-1.3,0.3-2.6,0.4-3.9c0-0.3-0.1-0.6-0.2-0.9
		c-0.6-0.9-1.6-0.8-2.5-0.7c-0.8,0.1-1.2,0.6-1.5,1.4c-0.4,1.4-0.8,2.7-1.4,4c-0.9,2.1-2.4,3.5-4.7,3.8c-1.7,0.2-3.5,0.3-5.2,0.2
		c-1.2-0.1-2.3-0.4-3.4-0.7c-1.1-0.4-1.8-1.3-2-2.4c-0.2-0.9-0.3-1.9-0.3-2.8c0-8.1,0-16.2,0-24.3c0-0.9,0.1-1.8,0.2-2.7
		c0.2-1.4,1-2.3,2.3-2.6c0.8-0.2,1.5-0.3,2.3-0.3c1.2-0.1,1.8-0.9,1.8-2.2c0-1.1-0.7-1.8-1.8-1.7c-1.9,0.1-3.9,0.2-5.8,0.3
		c-2.5,0-5,0-7.5,0c-1.8,0-3.6-0.2-5.3-0.2c-1.2,0-1.8,0.7-1.9,1.9c0,1.2,0.6,2,1.8,2c0.4,0,0.8,0.1,1.3,0.1
		c2.1,0.3,3.2,1.2,3.5,3.1c0.1,0.9,0.2,1.9,0.2,2.9c0,8.5,0,17.1,0,25.6c0,0.8,0,1.5-0.1,2.3c-0.1,1.5-0.6,2.1-2.2,2.5
		c-0.8,0.2-1.7,0.3-2.5,0.5c-0.5,0.1-1.1,0.3-1.5,0.7c-0.6,0.5-0.7,1.6-0.4,2.3c0.4,0.8,1,1.1,2,1.1c2.2-0.1,4.4-0.3,6.6-0.4
		C189.8,149.8,194,149.8,198.2,149.8z M130.7,162l-0.1-0.1c-0.4,0.4-0.7,0.9-1.1,1.3c-1.1,1.4-2.2,2.8-3.3,4.1
		c-0.6,0.7-1.4,1.2-2.3,1.3c-1.3,0.1-2-0.8-2.6-1.7c-0.4-0.6-0.4-1.3-0.1-1.9c0.4-0.7,0.8-1.4,1.4-1.9c1.2-1.1,2.6-2.1,3.8-3.1
		c0.4-0.3,0.8-0.7,1.3-1c-0.3,0-0.5,0-0.6,0.1c-2,0.8-3.8,1.8-5.5,3.1c-0.8,0.6-1.5,1.4-2.1,2.3c-0.9,1.3-1,2.8,0,4.2
		c0,0.1,0.1,0.1,0.1,0.2c-1.8,1.8-3.6,3.6-5.4,5.4c-0.5,0.5-1.3,0.5-1.9,0c-1.5-1.5-3.1-3.1-4.6-4.6c-0.1-0.1-0.2-0.2-0.3-0.4
		c0-0.1,0.1-0.1,0.1-0.1c0.7-0.7,1.4-1.4,2-2c0.9-0.9,0.8-1.6-0.1-2.4c-2.5-2.2-5-4.3-7.5-6.5c-0.8-0.7-1.4-0.7-2.2,0.1
		c-1.5,1.5-3,3-4.6,4.5c-0.7,0.7-0.8,1.4-0.1,2.2c2.1,2.5,4.3,5,6.4,7.4c0.9,1,1.6,1,2.5,0.1c0.7-0.7,1.4-1.4,2-2
		c1.7,1.7,3.4,3.4,5.2,5.2c-0.1,0.1-0.4,0.2-0.5,0.4c-4,4-7.9,7.9-11.9,11.9c-0.2,0.2-0.4,0.4-0.5,0.6c-0.5,0.7-0.5,1.4-0.2,2.1
		c0.4,0.7,1,1,1.8,1c0.7,0,1.1-0.3,1.6-0.8c3.7-3.7,7.5-7.5,11.2-11.2c0.2-0.2,0.2-0.4,0.4-0.6c0.1,0,0.2,0,0.3,0
		c0.1,0.2,0.2,0.4,0.4,0.6c3.8,3.8,7.6,7.6,11.3,11.3c0.5,0.5,1.1,0.8,1.9,0.7s1.3-0.6,1.5-1.3c0.3-0.8,0-1.5-0.6-2.1
		c-4.1-4.1-8.2-8.1-12.2-12.2c-0.2-0.2-0.3-0.3-0.4-0.5c1.9-1.9,3.7-3.7,5.5-5.5c2,1.3,3.6,0.7,4.9-0.5c0.8-0.7,1.6-1.5,2.2-2.4
		C129.1,165.7,130,163.9,130.7,162z M75.3,88.9c-0.4,0-0.6,0-0.9,0c-20.8,0-41.7,0-62.5,0c-0.2,0-0.3,0-0.5,0
		c-0.4-0.1-0.6,0.1-0.6,0.6c0,1.1,0,2.1,0,3.2c0,0.6,0.2,0.7,0.7,0.7c21.1,0,42.1,0,63.2,0c0.2,0,0.4,0,0.6,0
		C75.3,91.8,75.3,90.4,75.3,88.9z M251.6,88.9c-21.5,0-42.9,0-64.4,0c0,1.5,0,2.9,0,4.3c21.5,0,42.9,0,64.4,0
		C251.6,91.8,251.6,90.4,251.6,88.9z M228.1,179.7c7,0,14,0,21,0c0.2,0,0.3,0,0.5,0c0.1-0.1,0.3-0.2,0.3-0.3c0-1.2,0-2.5,0-3.7
		c0-0.1-0.2-0.3-0.4-0.4c-0.2-0.1-0.4,0-0.6,0c-13.8,0-27.7,0-41.5,0c-0.2,0-0.3,0-0.5,0c-0.4,0-0.6,0.2-0.6,0.6c0,1,0,2.1,0,3.1
		c0,0.8,0,0.8,0.8,0.8C214.1,179.7,221.1,179.7,228.1,179.7z M53.5,179.7c0-0.1,0-0.2,0-0.2c0-1.1,0-2.3,0-3.4
		c0-0.8,0.2-0.9-0.9-0.9c-13.9,0-27.8,0-41.8,0c-0.1,0-0.2,0-0.2,0c-0.5-0.1-0.7,0.1-0.7,0.6c0,1,0,2.1,0,3.1c0,0.6,0.1,0.7,0.7,0.7
		c14.1,0,28.1,0,42.2,0C53.1,179.7,53.3,179.7,53.5,179.7z M65.8,168.6c0,5.6,0,11.2,0,16.7c0.1,0,0.1,0.1,0.1,0.1
		c2.4,0,4.8,0.1,7.2-0.2c3.3-0.3,5.5-2.1,6.5-5.4c0.4-1.4,0.5-2.7,0.4-4.1c-0.2-4-2.8-6.7-6.7-7C70.8,168.5,68.4,168.6,65.8,168.6
		C65.9,168.6,65.9,168.6,65.8,168.6z M143.6,175.6c-2.5,0-4.8,0-7.3,0c0,1,0,2,0,2.9c0,0.4,0.2,0.5,0.5,0.5c0.7,0,1.4,0,2.1,0
		c0.3,0,0.4,0.1,0.4,0.4c0,0.6,0,1.2,0,1.8c0,0.3-0.1,0.5-0.4,0.5c-0.6,0-1.2,0.1-1.8,0.1c-1.6-0.1-2.6-0.9-3.1-2.3
		c-0.4-1.1-0.4-2.3-0.3-3.5c0.3-2.9,2.1-4.4,5.1-4c1,0.1,2.1,0.4,3.2,0.7c0.4-0.9,0.7-1.9,1.2-2.9c0.2-0.4,0.1-0.6-0.4-0.7
		c-2.3-0.8-4.6-1-7-0.7c-3,0.5-5.3,2.1-6.3,5.1c-0.7,2.1-0.7,4.2-0.2,6.3c0.7,2.8,2.4,4.7,5.2,5.4c3,0.7,5.9,0.2,8.8-0.6
		c0.1,0,0.3-0.4,0.3-0.6c0-2.2,0-4.4,0-6.5C143.6,176.9,143.6,176.3,143.6,175.6z M157.2,178.1c0.4-0.3,0.7-0.5,1-0.7
		c1.6-1.3,2.1-2.9,1.8-4.9s-1.6-3.1-3.4-3.5c-0.9-0.2-1.8-0.4-2.8-0.4c-1.9-0.1-3.7,0-5.6,0c-0.2,0-0.4,0-0.6,0c0,5.6,0,11.2,0,16.8
		c1.5,0,3,0,4.5,0c0-0.2,0-0.4,0-0.6c0-1.7,0-3.3,0-5c0-0.2,0.1-0.4,0.2-0.5c0.5-0.2,1,0,1.2,0.5c1,1.8,2,3.5,3.1,5.3
		c0.1,0.2,0.3,0.4,0.5,0.4c1.6,0,3.2,0,4.9,0C160.4,182.9,158.8,180.5,157.2,178.1z M83.8,168.6c0,5.6,0,11.2,0,16.8
		c3.3,0,6.6,0,9.9,0c0-1.2,0-2.4,0-3.6c-0.2,0-0.3,0-0.4,0c-1.5,0-3,0-4.5,0c-0.5,0-0.6-0.1-0.6-0.6c0-0.6,0-1.3,0-2
		c0-0.5,0.1-0.7,0.7-0.7c1.5,0,2.9,0,4.4,0c0-1.2,0-2.4,0-3.6c-0.3,0-0.5,0-0.7,0c-1.3,0-2.6,0-3.9,0c-0.4,0-0.5-0.1-0.5-0.5
		c0-0.5,0-1,0-1.6s0.2-0.7,0.7-0.7c1.4,0,2.8,0,4.3,0c0.2,0,0.5,0.1,0.5-0.3c0-1.1,0-2.1,0-3.2C90.4,168.6,87.2,168.6,83.8,168.6z
		 M192,181.8c0-0.3,0-0.5,0-0.8c0-1.8,0-3.7,0-5.5c0-2.1,0-4.3,0-6.4c0-0.2-0.2-0.5-0.3-0.5c-1.4,0-2.7,0-4.2,0c0,5.6,0,11.2,0,16.8
		c3.7,0,7.3,0,11,0c0-1.2,0-2.4,0-3.6C196.3,181.8,194.2,181.8,192,181.8z M184.1,181.8c-0.3,0-0.5,0-0.7,0c-1.7,0-3.4,0-5.1,0
		c-0.6,0-0.7-0.2-0.7-0.7c0-3.9,0-7.8,0-11.7c0-0.2,0-0.5,0-0.7c-1.5,0-2.9,0-4.4,0c0,5.6,0,11.2,0,16.8c3.7,0,7.3,0,11,0
		C184.1,184.2,184.1,183,184.1,181.8z M164.3,168.6c0,5.7,0,11.2,0,16.8c1.5,0,3,0,4.5,0c0-0.2,0-0.4,0-0.6c0-3.3,0-6.7,0-10
		c0-1.9,0-3.8,0-5.7c0-0.2,0.1-0.6-0.3-0.6C167.1,168.6,165.7,168.6,164.3,168.6z"/>
	<path class="st0" d="M85.7,69.2c0-2.6,0-5.1,0-7.6c3.2,0,6.4,0,9.7,0c0,1.2,0,2.4,0,3.7c1.3,0,2.4,0,3.6,0c0.1,0,0.2-0.3,0.2-0.5
		c0-1.1,0-2.1,0-3.2c0.2,0,0.3-0.1,0.5-0.1c1.1,0,2.1,0,3.2,0c0.4,0,0.5,0.1,0.5,0.5c0,0.9,0,1.8,0,2.7c0,0.4,0.1,0.6,0.6,0.6
		c0.9,0,1.8,0,2.7,0c0.5,0,0.6-0.2,0.6-0.6c0-0.9,0-1.8,0-2.6c0-0.4,0.1-0.5,0.5-0.5c1.2,0,2.4,0,3.6,0c0,1.1,0,2.1,0,3.1
		c0,0.6,0.2,0.7,0.7,0.7c0.9,0,1.7,0,2.6,0c0.5,0,0.6-0.2,0.6-0.6c0-1,0-2.1,0-3.1c1.4,0,2.7,0,4.2,0c0,1.2,0,2.4,0,3.7
		c0.9,0,1.7,0,2.6,0c1.3,0,1.3,0,1.3-1.3c0-0.8,0-1.6,0-2.5c1.4,0,2.7,0,4.1,0c0,1,0,2,0,3c0,0.7,0,0.7,0.8,0.8c0.9,0,1.7,0,2.6,0
		c0.4,0,0.5-0.1,0.5-0.5c0-0.9,0-1.8,0-2.7c0-0.4,0.1-0.6,0.6-0.5c1.2,0,2.3,0,3.6,0c0,1,0,2,0,3c0,0.8,0,0.8,0.7,0.8s1.4,0,2.1,0
		c1.1,0,1,0.1,1-0.9c0-0.9,0-1.8,0-2.8c1.3,0,2.6,0,3.9,0c0.1,0,0.2,0.3,0.3,0.5c0,0.9,0,1.8,0,2.7c0,0.4,0.2,0.6,0.6,0.6
		c0.9,0,1.8,0,2.8,0c0.4,0,0.5-0.1,0.5-0.5c0-1.1,0-2.1,0-3.2c1.4,0,2.7,0,4.1,0c0,1,0,2,0,3c0,0.5,0.1,0.7,0.7,0.7c1,0,2.1,0,3.2,0
		c0-1.3,0-2.5,0-3.7c1.4,0,2.8,0,4.2,0c0,1.2,0,2.4,0,3.7c1.3,0,2.4,0,3.6,0c0.1,0,0.2-0.3,0.2-0.5c0-1.1,0-2.1,0-3.2
		c1.4,0,2.7,0,4.1,0c0,0.8,0,1.7,0,2.6c0,0.2,0,0.5,0,0.7s0.3,0.4,0.4,0.4c1,0,2,0,3,0c0.4,0,0.4-0.2,0.4-0.5c0-0.9,0-1.8,0-2.8
		c0-0.3,0-0.5,0.4-0.5c3.1,0,6.1,0,9.2,0c0,2.5,0,5.1,0,7.6c-0.2,0-0.4,0-0.7,0c-2.5,0-5,0-7.5,0c-0.3,0-0.6,0-0.7,0.4
		c-1.4,5.8-4.6,10.5-9.1,14.3c-5.3,4.5-11.5,7.3-18.3,8.8c-4.3,1-8.7,1.4-13.1,1.2c-9.1-0.3-17.5-2.6-25.1-7.8
		c-4.7-3.2-8.5-7.3-10.8-12.6c-0.5-1.2-0.9-2.5-1.2-3.8c-0.1-0.5-0.3-0.6-0.8-0.6c-2.4,0-4.9,0-7.3,0C86.2,69.2,86,69.2,85.7,69.2z"
		/>
	<path class="st0" d="M157.1,49.1c-1.3-0.7-2.2-1.6-2.9-2.9c-1.7-3.2-2-6.5-1.4-10c0.3-1.5,0.8-2.9,1.9-4.2c-4.8,1-8,3.4-8.9,8.3
		c-0.1-0.2-0.1-0.4-0.1-0.5c-0.2-1.1-0.3-2.3-0.5-3.4c-0.4-2.3-1.4-4.4-3.3-5.8c-1.3-1-2.2-2.2-2.7-3.7c-1.6-4.4-1.3-8.9,0.3-13.2
		c0.5-1.3,1.3-2.6,2-3.9c0,0-0.1,0.1-0.2,0.1c-5.1,2.1-9.7,5.1-13.4,9.3c-3.1,3.6-5,7.8-5.3,12.6c-0.2,3.3,0.4,6.6,1.5,9.7
		c0.1,0.3,0.2,0.5,0.3,0.9c-0.3-0.1-0.5-0.2-0.7-0.3c-2-1-3.2-2.7-3.9-4.8c-0.5-1.5-1.3-2.7-2.4-3.8c-2.4-2.5-5.4-4-8.6-5.3
		c-0.1,0-0.2,0-0.3,0c0.1,0.2,0.2,0.4,0.3,0.5c1.1,1.8,2.1,3.7,2.7,5.8c0.8,2.5,1.1,4.9,0.4,7.5c-0.4,1.5-1.2,2.8-2.1,4
		c-2.4,3.4-3.5,7-2.6,11.2c0.2,0.9,0.3,1,1.2,0.7c0-0.2-0.1-0.4-0.1-0.6c-0.8-3.1-0.6-6.1,1.2-8.8c0.8-1.2,1.6-2.4,2.4-3.6
		c0.9-1.4,1.4-2.9,1.5-4.6c0.1-2.9-0.5-5.5-1.7-8.1c-0.3-0.5-0.5-1.1-0.8-1.6c0.1,0,0.2-0.1,0.2-0.4c0.1,0.2,0.2,0.3,0.3,0.5
		c3.3,4.1,3.9,8.7,2.3,13.6c-0.6,1.8-1.7,3.5-2.6,5.2c-1.3,2.5-1.7,5-1,7.7c0.2,0.5,0.4,0.7,1,0.7c12.4,0,24.7,0,37.1,0
		c3.2,0,6.5,0,9.7,0c0.4,0,0.7-0.1,0.8-0.5c0.3-1.1,0.7-2.1,0.9-3.2C159.9,51.9,159,50,157.1,49.1z M127.6,45.1
		c-0.5-1.3-1.1-2.6-1.5-3.9c-0.9-2.8-1.5-5.6-1.5-8.6c0-5.2,1.9-9.7,5.5-13.5c1.9-2,4.1-3.6,6.5-4.8c0.1-0.1,0.3-0.2,0.5-0.2
		C126.3,22.1,123.5,32.5,127.6,45.1z M146.6,45.4c0-1.1-0.1-2.2,0-3.3c0.2-2.3,0.9-4.4,2.5-6.1c0.9-0.9,2.2-1.7,3.3-1.9
		C148.6,37,147.2,40.9,146.6,45.4z"/>
	<path class="st0" d="M94.1,118.1C92,112,88,107.8,82,105.6c-4.2-1.6-8.4-1.8-12.7-1.1c-7.5,1.3-12.9,5.4-16,12.4
		c-1.6,3.7-2.2,7.5-2,11.5c0.1,2.6,0.4,5.1,1.1,7.6c1.5,5.6,4.8,9.7,10,12.2c3.4,1.6,7,2.2,10.8,2.3c1.5-0.2,3.1-0.2,4.7-0.5
		c7-1.3,12.3-5.1,15.3-11.7C96.2,131.8,96.4,124.9,94.1,118.1z M83.4,138.5c-0.8,1.8-1.8,3.4-3.2,4.7c-3,2.9-6.6,3.3-10.4,2.1
		c-3.4-1.1-5.4-3.6-6.7-6.7c-0.9-2.4-1.4-4.9-1.6-7.4s-0.3-5,0-7.5c0.4-4,1.4-7.7,3.8-11c4.3-5.8,13.4-5.4,17.2,1
		c1.4,2.5,2.2,5.1,2.6,7.9c0.2,1.8,0.3,3.7,0.5,5.5C85.5,131.1,84.9,134.9,83.4,138.5z"/>
	<path class="st0" d="M231.2,129.2c0,0.4,0,0.6,0,0.8c0,3,0,6,0,9c0,1.2,0.1,2.4,0.3,3.5c0.2,1.4,0.9,2.1,2.3,2.4
		c2.5,0.5,5.1,0.4,7.6,0.3c0.9-0.1,1.8-0.3,2.7-0.6c2.3-0.8,3.6-2.4,3.9-4.8c0.1-0.6,0.2-1.1,0.3-1.7c0.1-0.6,0.5-1,1.1-1.3
		c0.7-0.3,1.5-0.3,2.2,0s1,0.8,0.9,1.6c-0.3,3.1-0.8,6.3-0.7,9.4c0,1-0.8,1.7-2,1.9c-0.3,0-0.6,0-0.9,0c-7.1,0-14.2,0-21.3,0
		c-3.3,0-6.5,0.2-9.8,0.3c-1.3,0-2-0.6-2-1.8c-0.1-1.3,0.5-2,1.8-2.2c0.7-0.1,1.4-0.3,2.1-0.4c1.6-0.4,2.4-1.5,2.6-3.1
		c0.1-0.5,0.1-1,0.1-1.5c0-8.1,0-16.3,0-24.4c0-1.3-0.1-2.6-0.3-3.8c-0.3-2.3-1.3-3.1-3.5-3.5c-0.5-0.1-1.1-0.1-1.6-0.2
		c-0.2,0-0.5-0.1-0.6-0.2c-0.7-0.4-1-1.4-0.7-2.4c0.2-0.8,0.8-1.3,1.7-1.3c10.2,0.1,20.4,0.1,30.7,0.2c1.5,0,2,0.7,2,2.2
		c-0.1,1.9,0,3.8,0,5.7c0,0.9,0.1,1.8,0.1,2.6c0,0.7-0.3,1.2-0.9,1.3c-0.6,0.2-1.2,0.2-1.7,0.1c-0.7-0.1-1.1-0.6-1.3-1.3
		c-0.2-1.1-0.4-2.2-0.8-3.3c-0.6-2.1-1.4-2.7-3.5-2.8c-3-0.1-6-0.1-9-0.1c-0.2,0-0.5,0.1-0.7,0.1c-0.6,0-0.8,0.4-0.9,0.9
		c-0.1,0.5-0.1,1-0.1,1.5c0,3.8,0,7.7,0,11.5c0,0.7,0,0.8,0.8,0.7c1.4-0.1,2.8-0.2,4.1-0.4c1.6-0.2,2.3-0.9,2.6-2.5
		c0.1-0.7,0.2-1.4,0.3-2s0.4-1.1,1-1.2s1.3-0.2,1.9-0.1c0.8,0.1,1.1,0.7,1.1,1.7c0,1.2-0.1,2.4-0.2,3.6c-0.3,2.5-0.2,4.9,0.1,7.4
		c0.1,1,0.2,2,0.1,3c0,1-0.6,1.6-1.7,1.7c-0.3,0-0.6,0-0.9,0c-0.8-0.1-1.3-0.6-1.4-1.4c-0.1-0.8-0.3-1.7-0.4-2.5
		c-0.2-1.3-1-2-2.2-2.2C234.7,129.4,233,129.3,231.2,129.2z"/>
	<path class="st0" d="M174.7,146.1c-0.4-0.1-0.7-0.2-1.1-0.3c-1-0.2-1.9-0.7-2.4-1.5c-0.6-1-1.3-2-1.7-3.1
		c-4.8-12-9.5-23.9-14.3-35.9c-0.4-1-1.1-1.5-2.4-1.5c-1.1,0-1.5,0.4-2,1.5c-3.7,9.3-7.4,18.6-11.1,27.9c-1.2,3-2.4,6.1-3.7,9.1
		c-0.8,1.8-2,3.2-4.1,3.6c-0.4,0.1-0.8,0.1-1.2,0.2c-1,0.2-1.6,1-1.6,2c0.1,1.2,0.8,2,1.8,2s2.1-0.1,3.1-0.2
		c1.7-0.2,3.4-0.4,5.1-0.2c1.8,0.2,3.6,0.3,5.4,0.4c1.1,0.1,1.8-0.7,1.8-1.9s-0.6-2-1.7-2.1c-0.7,0-1.5-0.1-2.2-0.3
		c-1.7-0.5-2.1-1.3-1.5-3c0.9-2.3,1.8-4.7,2.7-7c0.3-0.8,0.5-0.9,1.4-0.9c1.9,0,3.7,0,5.5,0c2.1,0,4.2,0,6.1,0.1
		c0.4,0,0.6,0.2,0.8,0.6c0.8,2,1.6,4,2.3,6.1c0.3,0.8,0.4,1.8,0.5,2.7c0.1,0.6-0.2,1.1-0.8,1.2c-0.8,0.2-1.6,0.4-2.4,0.5
		c-1.1,0.2-1.8,0.9-1.7,2.1c0,1.2,0.8,1.9,1.9,1.9c1.8-0.1,3.5-0.2,5.2-0.3c2.6-0.2,5.3-0.3,7.9,0c1.4,0.2,2.9,0.2,4.3,0.3
		c0.5,0,1-0.2,1.3-0.6C176.9,148.3,176.2,146.4,174.7,146.1z M145.6,130.5c1.8-4.6,3.5-9.1,5.3-13.6h0.1c1.7,4.5,3.4,9,5.1,13.6
		C152.5,130.5,149.1,130.5,145.6,130.5z"/>
	<path class="st0" d="M118.1,127.6c1-1.7,1.9-3.2,2.8-4.8c1.5-2.9,3-5.8,4.4-8.8c0.4-0.8,0.6-1.7,0.8-2.5c0.3-1.2-0.2-1.9-1.4-2.1
		c-0.6-0.1-1.2-0.2-1.8-0.2c-1-0.1-1.6-0.9-1.6-2.2c0-1.1,0.7-1.8,1.8-1.8c1.5,0,3.1,0.1,4.6,0.3c2,0.2,4.1,0.1,6.1-0.1
		c1-0.1,2-0.2,3-0.2s1.6,0.7,1.7,1.7c0.1,1.3-0.5,2.2-1.5,2.3c-1.8,0.2-3.3,1.1-4.3,2.5c-1.4,2-2.7,4.2-4,6.3c-2.7,4.5-5.4,9-8,13.5
		c-0.2,0.3-0.3,0.7-0.3,1.1c0,2.9,0,5.8,0,8.7c0,0.9,0.2,1.7,0.3,2.6c0.1,0.9,0.7,1.4,1.5,1.6c1,0.2,2.1,0.4,3.1,0.6
		c1.5,0.2,2.3,1.4,1.9,2.8c-0.3,0.9-0.9,1.3-1.9,1.3c-1.9-0.1-3.7-0.2-5.6-0.4c-2.5-0.2-5-0.2-7.5,0c-1.8,0.1-3.6,0.3-5.4,0.4
		c-0.8,0.1-1.5-0.1-1.8-0.9c-0.4-0.8-0.4-1.7,0.1-2.5c0.4-0.6,1-0.7,1.7-0.8s1.4-0.2,2.2-0.3c1.9-0.4,2.5-1,2.5-2.9
		c0.1-3.3,0.1-6.6,0.1-9.9c0-0.2-0.1-0.4-0.2-0.5c-3.6-6.4-7.1-12.9-10.7-19.3c-0.5-0.8-1.1-1.6-1.7-2.4c-0.5-0.7-1.1-1-1.9-1.1
		s-1.5-0.2-2.3-0.4c-1.1-0.2-1.7-1-1.6-2.3c0.1-1,0.8-1.7,1.8-1.7c2.3,0.1,4.5,0.3,6.8,0.3c3.4,0,6.8-0.2,10.3-0.3
		c0.3,0,0.5,0,0.8,0c1.2,0,1.9,0.6,2,1.8c0.1,1.2-0.7,2.1-1.8,2.2c-0.8,0.1-1.6,0.3-2.4,0.5c-0.9,0.3-1.1,0.7-0.8,1.6
		c0.4,1,0.8,2.1,1.3,3c2.2,4.2,4.4,8.5,6.7,12.7C117.9,127.2,118,127.3,118.1,127.6z"/>
	<path class="st0" d="M198.2,149.8c-4.2,0-8.4,0-12.6,0c-2.2,0-4.4,0.2-6.6,0.4c-1,0.1-1.6-0.3-2-1.1c-0.3-0.7-0.2-1.8,0.4-2.3
		c0.4-0.3,1-0.5,1.5-0.7c0.8-0.2,1.7-0.3,2.5-0.5c1.5-0.3,2-0.9,2.2-2.5c0.1-0.8,0.1-1.5,0.1-2.3c0-8.5,0-17.1,0-25.6
		c0-1-0.1-1.9-0.2-2.9c-0.3-1.9-1.3-2.8-3.5-3.1c-0.4-0.1-0.8-0.1-1.3-0.1c-1.1-0.1-1.8-0.8-1.8-2s0.7-2,1.9-1.9
		c1.8,0,3.6,0.2,5.3,0.2c2.5,0,5,0.1,7.5,0c1.9,0,3.9-0.2,5.8-0.3c1.1,0,1.8,0.6,1.8,1.7c0,1.4-0.6,2.1-1.8,2.2
		c-0.8,0.1-1.6,0.2-2.3,0.3c-1.4,0.3-2.1,1.2-2.3,2.6c-0.1,0.9-0.2,1.8-0.2,2.7c0,8.1,0,16.2,0,24.3c0,0.9,0.2,1.9,0.3,2.8
		c0.2,1.2,0.9,2,2,2.4s2.3,0.7,3.4,0.7c1.7,0.1,3.5,0,5.2-0.2c2.3-0.3,3.8-1.8,4.7-3.8c0.6-1.3,1-2.6,1.4-4c0.2-0.8,0.7-1.3,1.5-1.4
		c0.9-0.1,1.9-0.2,2.5,0.7c0.2,0.2,0.2,0.6,0.2,0.9c-0.1,1.3-0.3,2.6-0.4,3.9c-0.1,2-0.3,4.1-0.3,6.1c-0.1,1.7-0.7,2.4-2.5,2.5
		C206.7,149.8,202.4,149.8,198.2,149.8L198.2,149.8z"/>
	<path class="st0" d="M75.3,88.9c0,1.5,0,2.9,0,4.4c-0.2,0-0.4,0-0.6,0c-21.1,0-42.1,0-63.2,0c-0.5,0-0.7-0.1-0.7-0.7
		c0.1-1.1,0-2.1,0-3.2c0-0.4,0.1-0.6,0.6-0.6c0.2,0,0.3,0,0.5,0c20.8,0,41.7,0,62.5,0C74.6,88.9,74.9,88.9,75.3,88.9z"/>
	<path class="st0" d="M251.6,88.9c0,1.5,0,2.9,0,4.3c-21.5,0-42.9,0-64.4,0c0-1.4,0-2.9,0-4.3C208.7,88.9,230.1,88.9,251.6,88.9z"/>
	<path class="st0" d="M228.1,179.7c-7,0-14,0-21,0c-0.8,0-0.8,0-0.8-0.8c0-1,0-2.1,0-3.1c0-0.4,0.1-0.6,0.6-0.6c0.2,0,0.3,0,0.5,0
		c13.8,0,27.7,0,41.5,0c0.2,0,0.4,0,0.6,0c0.2,0.1,0.4,0.2,0.4,0.4c0,1.2,0.1,2.5,0,3.7c0,0.1-0.2,0.3-0.3,0.3c-0.1,0.1-0.3,0-0.5,0
		C242,179.7,235.1,179.7,228.1,179.7z"/>
	<path class="st0" d="M53.5,179.7c-0.2,0-0.4,0-0.6,0c-14.1,0-28.1,0-42.2,0c-0.6,0-0.7-0.2-0.7-0.7c0-1,0.1-2.1,0-3.1
		c0-0.5,0.2-0.7,0.7-0.6c0.1,0,0.2,0,0.2,0c13.9,0,27.8,0,41.8,0c1.1,0,0.9,0,0.9,0.9c0,1.1,0,2.3,0,3.4
		C53.6,179.6,53.5,179.6,53.5,179.7z"/>
	<path class="st0" d="M65.8,168.6c0.1,0,0.1-0.1,0.2-0.1c2.5,0,4.9-0.1,7.4,0.1c4,0.3,6.5,3.1,6.7,7c0.1,1.4,0,2.8-0.4,4.1
		c-1,3.2-3.3,5-6.5,5.4c-2.4,0.3-4.8,0.1-7.2,0.2c0,0-0.1,0-0.1-0.1C65.8,179.8,65.8,174.2,65.8,168.6z M70.4,172.2
		c0,3.2,0,6.3,0,9.5c0.5,0,1,0,1.5,0c1.8-0.1,2.9-1.1,3.3-2.8c0.3-1.3,0.3-2.7,0-4c-0.4-1.5-1.3-2.4-2.8-2.6
		C71.8,172.1,71.1,172.2,70.4,172.2z"/>
	<path class="st0" d="M143.6,175.6c0,0.7,0,1.3,0,2c0,2.2,0,4.4,0,6.5c0,0.2-0.1,0.5-0.3,0.6c-2.9,0.9-5.8,1.3-8.8,0.6
		c-2.9-0.7-4.6-2.6-5.2-5.4c-0.5-2.1-0.5-4.3,0.2-6.3c1-3,3.2-4.6,6.3-5.1c2.4-0.4,4.7-0.1,7,0.7c0.4,0.1,0.5,0.3,0.4,0.7
		c-0.4,1-0.8,2-1.2,2.9c-1.1-0.2-2.1-0.5-3.2-0.7c-2.9-0.4-4.8,1.1-5.1,4c-0.1,1.2-0.1,2.3,0.3,3.5c0.5,1.4,1.6,2.3,3.1,2.3
		c0.6,0,1.2-0.1,1.8-0.1c0.3,0,0.4-0.2,0.4-0.5c0-0.6,0-1.2,0-1.8c0-0.3-0.1-0.4-0.4-0.4c-0.7,0-1.4,0-2.1,0c-0.4,0-0.6-0.1-0.5-0.5
		c0-1,0-1.9,0-2.9C138.7,175.6,141.1,175.6,143.6,175.6z"/>
	<path class="st0" d="M157.2,178.1c1.6,2.4,3.2,4.8,4.9,7.3c-1.7,0-3.3,0-4.9,0c-0.2,0-0.4-0.2-0.5-0.4c-1-1.7-2-3.5-3.1-5.3
		c-0.3-0.5-0.7-0.7-1.2-0.5c-0.1,0.1-0.2,0.3-0.2,0.5c0,1.7,0,3.3,0,5c0,0.2,0,0.4,0,0.6c-1.5,0-3,0-4.5,0c0-5.6,0-11.2,0-16.8
		c0.2,0,0.4,0,0.6,0c1.9,0,3.7,0,5.6,0c0.9,0,1.9,0.2,2.8,0.4c1.8,0.5,3.1,1.6,3.4,3.5c0.3,1.9-0.2,3.6-1.8,4.9
		C157.9,177.6,157.5,177.8,157.2,178.1z M152.2,171.9c0,1.3,0,2.5,0,3.7c0,0.1,0.2,0.3,0.3,0.3c0.5,0,1.1,0,1.6-0.2
		c0.9-0.3,1.4-1,1.3-2.1c0-0.9-0.5-1.4-1.5-1.6C153.4,171.9,152.8,172,152.2,171.9z"/>
	<path class="st0" d="M83.8,168.6c3.3,0,6.6,0,9.9,0c0,1.1,0,2.2,0,3.2c0,0.4-0.3,0.3-0.5,0.3c-1.4,0-2.8,0-4.3,0
		c-0.6,0-0.8,0.2-0.7,0.7c0,0.5,0,1,0,1.6c0,0.4,0.1,0.5,0.5,0.5c1.3,0,2.6,0,3.9,0c0.2,0,0.4,0,0.7,0c0,1.2,0,2.4,0,3.6
		c-1.5,0-2.9,0-4.4,0c-0.6,0-0.7,0.2-0.7,0.7c0,0.6,0,1.3,0,2c0,0.5,0.1,0.6,0.6,0.6c1.5,0,3,0,4.5,0c0.1,0,0.2,0,0.4,0
		c0,1.2,0,2.4,0,3.6c-3.3,0-6.6,0-9.9,0C83.8,179.8,83.8,174.2,83.8,168.6z"/>
	<path class="st0" d="M192,181.8c2.2,0,4.3,0,6.4,0c0,1.2,0,2.4,0,3.6c-3.7,0-7.3,0-11,0c0-5.6,0-11.2,0-16.8c1.4,0,2.8,0,4.2,0
		c0.1,0,0.3,0.3,0.3,0.5c0,2.1,0,4.3,0,6.4c0,1.8,0,3.7,0,5.5C192,181.2,192,181.5,192,181.8z"/>
	<path class="st0" d="M184.1,181.8c0,1.3,0,2.4,0,3.6c-3.7,0-7.3,0-11,0c0-5.6,0-11.2,0-16.8c1.5,0,2.9,0,4.4,0c0,0.2,0,0.5,0,0.7
		c0,3.9,0,7.8,0,11.7c0,0.6,0.2,0.7,0.7,0.7c1.7,0,3.4,0,5.1,0C183.7,181.8,183.9,181.8,184.1,181.8z"/>
	<path class="st0" d="M164.3,168.6c1.4,0,2.8,0,4.1,0c0.4,0,0.3,0.3,0.3,0.6c0,1.9,0,3.8,0,5.7c0,3.3,0,6.7,0,10c0,0.2,0,0.3,0,0.6
		c-1.5,0-3,0-4.5,0C164.3,179.8,164.3,174.2,164.3,168.6z"/>
	<path class="st0" d="M50,142c-1.1-0.3-1.9,0.2-2.3,1.3c-0.1,0.5-0.3,0.9-0.6,1.3c-0.6,0.8-1.4,0.8-2,0c-0.2-0.3-0.4-0.7-0.5-1.1
		c-0.3-1.5-0.7-3.1-1-4.6c-0.9-4-2.8-7.3-6.3-9.6c-0.4-0.2-0.8-0.5-1.3-0.8c0.4-0.1,0.6-0.2,0.6-0.2c1.9-0.6,3.7-1.5,5.2-2.9
		c2-1.9,2.9-4.4,3.1-7.1c0.2-3.4-0.6-6.5-3-9c-2.5-2.6-5.8-3.8-9.3-4c-3-0.2-6.1,0-9.1,0c-2.8,0-5.5-0.1-8.3-0.1
		c-1.2,0-2.5-0.1-3.7-0.1c-1.1,0-1.8,0.8-1.8,1.9c0,1.2,0.5,1.9,1.6,2c0.5,0,1,0.1,1.6,0.2c1.8,0.3,3,1.3,3.3,3.1
		c0.2,1.3,0.4,2.7,0.4,4c0,8.1,0,16.1,0,24.2c0,0.7,0,1.5-0.1,2.2c-0.2,2-0.8,2.7-2.8,3.1c-0.6,0.1-1.3,0.2-2,0.3
		c-1.1,0.2-1.7,1-1.6,2.3c0,1,0.7,1.7,1.8,1.7c1.2,0,2.5,0,3.8-0.2c3.6-0.4,7.1-0.3,10.7,0c1.6,0.1,3.3,0.2,4.9,0.2
		c1.1,0,1.8-0.8,1.8-2c0-1.1-0.6-1.9-1.7-2c-0.6-0.1-1.3-0.2-2-0.3c-1.3-0.3-2.6-0.7-3.2-2c-0.3-0.7-0.5-1.5-0.6-2.3
		c-0.1-1.5-0.1-3-0.1-4.5c0-1.8,0-3.6,0-5.4c0-0.8,0.3-1.2,1-1.3c2.4-0.2,4.5,0.4,5.9,2.6c0.9,1.5,1.5,3.1,1.9,4.8
		c0.8,3,1.6,6,2.4,9c0.4,1.5,1.5,2.6,2.9,3.3c1.7,0.9,3.5,1,5.3,0.8c3.5-0.4,6.2-3.1,6.7-6.6C51.8,143.1,51.2,142.3,50,142z
		 M31,125.6c-1.4,0.1-2.9,0.1-4.3,0.1c-1.1,0-1.2-0.2-1.2-1.3c0,0,0-0.1,0-0.1c0-2.1,0-4,0-6.1c0-2,0-4,0-5.9c0,0,0-0.1,0-0.1
		c0-1.9,0.4-2.4,2.3-2.4c1.4,0,2.8,0.1,4.1,0.3c1.9,0.3,3.2,1.6,3.6,3.5c0.2,0.7,0.3,1.4,0.4,2.1c0.3,2.1,0.1,4.2-0.4,6.2
		C34.9,124.3,33.3,125.3,31,125.6z"/>
	<path class="st0" d="M125.7,169.6c0.8-0.7,1.6-1.5,2.2-2.4c1.2-1.6,2.1-3.3,2.8-5.2c0,0-0.1,0,0-0.2c-0.4,0.4-0.7,0.9-1.1,1.3
		c-1.1,1.4-2.2,2.8-3.3,4.1c-0.6,0.7-1.4,1.2-2.3,1.3c-1.2,0.1-2-0.8-2.6-1.7c-0.4-0.6-0.5-1.3-0.1-1.9c0.4-0.7,0.8-1.4,1.4-1.9
		c1.2-1.1,2.5-2.1,3.8-3.1c0.5-0.3,0.9-0.7,1.3-1c-0.2,0-0.4,0-0.6,0.1c-2,0.8-3.9,1.8-5.5,3.1c-0.8,0.7-1.5,1.5-2.1,2.3
		c-0.9,1.4-1,2.8,0,4.2c0.1,0,0.1,0.1,0.1,0.2c-1.8,1.8-3.6,3.6-5.4,5.4c-0.5,0.5-1.4,0.5-1.9,0c-1.5-1.5-3.1-3.1-4.6-4.6
		c-0.1-0.2-0.2-0.3-0.3-0.4c0.1,0,0.1-0.1,0.1-0.1c0.6-0.6,1.3-1.3,2-2c0.8-0.9,0.8-1.6-0.1-2.4c-2.5-2.2-5-4.3-7.5-6.5
		c-0.8-0.6-1.5-0.6-2.2,0.1c-1.6,1.5-3.1,3-4.6,4.5c-0.8,0.7-0.8,1.4-0.1,2.2c2.1,2.5,4.3,4.9,6.4,7.4c0.9,1,1.6,1,2.5,0.1
		c0.7-0.7,1.4-1.4,2-2c1.8,1.8,3.4,3.4,5.2,5.2c-0.1,0.1-0.3,0.2-0.5,0.4c-4,4-7.9,7.9-11.9,11.9c-0.1,0.2-0.3,0.4-0.5,0.6
		c-0.5,0.7-0.6,1.4-0.2,2.1c0.4,0.7,1,1,1.8,1c0.7,0,1.1-0.3,1.6-0.8c3.7-3.7,7.5-7.5,11.2-11.2c0.2-0.2,0.3-0.4,0.4-0.6
		c0.1,0,0.2,0,0.3,0c0.1,0.2,0.2,0.4,0.4,0.6c3.7,3.7,7.5,7.5,11.3,11.3c0.5,0.6,1.1,0.8,1.9,0.7c0.7-0.1,1.3-0.6,1.5-1.3
		c0.2-0.8,0-1.5-0.6-2.1c-4-4-8.1-8.1-12.2-12.2c-0.1-0.2-0.3-0.4-0.4-0.5c1.8-1.8,3.7-3.7,5.5-5.5
		C122.8,171.4,124.4,170.7,125.7,169.6z M102.9,169.9c-0.3,0.3-0.7,0.2-1-0.1c-1.4-1.4-2.8-2.8-4.2-4.2c-0.2-0.2-0.2-0.5-0.2-0.8
		c0-0.2,0.3-0.3,0.5-0.5c0.3,0.1,0.5,0.2,0.7,0.5c1.3,1.3,2.7,2.7,4.1,4.1C103.1,169.2,103.2,169.5,102.9,169.9z M104.8,167.9
		c-0.4,0.4-0.7,0.2-1-0.1c-1.4-1.4-2.8-2.8-4.2-4.2c-0.2-0.2-0.2-0.5-0.2-0.8c0-0.1,0.3-0.2,0.5-0.4c0.2,0.2,0.4,0.3,0.7,0.4
		c1.3,1.3,2.7,2.7,4.1,4.1C105,167.2,105.2,167.5,104.8,167.9z M106.4,166.2c-0.3,0.3-0.7,0.1-1-0.2c-1.3-1.4-2.7-2.7-4-4.1
		c-0.1-0.1-0.2-0.3-0.4-0.6c0.2-0.2,0.3-0.5,0.3-0.5c0.2,0,0.5,0,0.7,0.1s0.4,0.3,0.5,0.4c1.3,1.3,2.5,2.5,3.8,3.8
		C106.7,165.6,106.7,165.9,106.4,166.2z M100.3,187.8l-0.1-0.1c3.8-3.8,7.5-7.5,11.2-11.3l0.1,0.1
		C108.2,180.6,104.3,184.2,100.3,187.8z M116.6,177.7c3.2,3.4,6.5,6.8,9.5,9.8c-1.2-0.6-8.6-7.8-9.6-9.7L116.6,177.7z"/>
</g>
</svg>
